DataType=double
version=3
OpenSimVersion=4.5.2-2025-05-03-6a4c6ec41
endheader
time	q	/jointset/head_joint/q/speed
7.535082091521703	-0.717483603803131	0.301200178135277
7.544097199751965	-0.7142697240578119	0.3367142997225235
7.555916700056843	-0.7109957718927384	0.3202603610923947
7.566127671392067	-0.7075954917283345	0.3607337550220465
7.579024056694852	-0.7038748456848484	0.3861231267358118
7.580982252816055	-0.6999895007460861	0.388336111504636
7.595411259200064	-0.6960506758234015	0.4144335805806362
7.601496125707325	-0.6917301521524366	0.432238199134176
7.612518044860709	-0.687387210871672	0.4458047004558336
7.623219989442582	-0.6828415507277117	0.4732308146852109
7.634175267122712	-0.6780201383915881	0.4759016186182096
7.64	-0.6731517287518456	0.5076530523841225
7.649847346790315	-0.6680055783324781	0.5156022961184187
7.66	-0.6627606218455936	0.5307198870805594
7.665801497345207	-0.6572638907696059	0.5561511276335412
7.676139453286439	-0.651708644626013	0.5716939615088816
7.686384614806093	-0.6458780454464745	0.5798735770723962
7.696542021913187	-0.6399541329232402	0.6018103133366465
7.700233530091633	-0.6338077669543359	0.6188009177551687
7.712329057022179	-0.6275714362507485	0.6438402093470281
7.72	-0.6211230497655655	0.6446174138088617
7.726533770882739	-0.6145108587685949	0.668439162493648
7.736384946292601	-0.6077766802485015	0.6794115141624247
7.746169569691422	-0.6008494859115662	0.6981334910201635
7.755891238471545	-0.5938239326695408	0.722285073176134
7.76	-0.5866232486366799	0.725563006155224
7.770518141573469	-0.5792536778819609	0.740013797041105
7.78	-0.5717766089768611	0.7561457855260219
7.784711988870296	-0.5641303319128066	0.7627716268181277
7.794214572162164	-0.5563327321575325	0.781020766878272
7.803669870488468	-0.5484284579916955	0.8066689596239233
7.81308063870837	-0.5403933075131335	0.8129088168770167
7.82	-0.5322025164169261	0.8234580438593858
7.825669152314395	-0.5238838552539185	0.8406837353421827
7.836408995782199	-0.5154595424020668	0.8600889314606832
7.841071816556504	-0.5069052716546708	0.8647563069746537
7.850330075715508	-0.4982131881277934	0.8731045891398844
7.859556193110809	-0.4893992955000766	0.8857087694273675
7.868160334115554	-0.4804773311085698	0.9024855748043157
7.87792094533194	-0.4714529282027664	0.9158338048053822
7.88	-0.4623092591702899	0.9214416894617001
7.888991377457805	-0.4530482713653189	0.9292851049381835
7.899310884621791	-0.4436784291387255	0.9393353003237508
7.905281410039723	-0.4342067106480736	0.9514963648499229
7.914359991115292	-0.4246387090795569	0.9653783051517882
7.92	-0.4149779892390011	0.9791879655391034
7.929939196448155	-0.4052231150767368	0.9871397966409636
7.94	-0.3953709611418895	0.9932721622975895
7.941498472519645	-0.3854257596702437	0.9999729368346417
7.950518540725337	-0.3753918484922809	1.007089490055477
7.96	-0.3652730335044945	1.014469127282119
7.968530679222139	-0.3550728695760122	1.021930181259068
7.977526399410536	-0.344794894447105	1.029258748204699
7.980127206840845	-0.3344426054560364	1.036273389485827
7.990056402942606	-0.3240193430325872	1.042816429173983
7.999955629736508	-0.3135281267732685	1.049573388696901
8.00449382394801	-0.302970057320765	1.058736464181198
8.013482367692262	-0.2923459425537384	1.068345035481972
8.02	-0.2816577302667384	1.077230717534859
8.029504839744092	-0.270908159169813	1.084904118453978
8.03931435500032	-0.2601004710326518	1.091222053445718
8.040471334476448	-0.2492381099931378	1.096217152961932
8.049481459274759	-0.2383245614675512	1.100009367108584
8.058887648594816	-0.2273632746684294	1.102767710407451
8.067533389538884	-0.2163576251774542	1.104685940901261
8.076578917548353	-0.2053107320456535	1.106743493164291
8.08	-0.1942227445233755	1.112390402102021
8.0881541910032	-0.1830939136835901	1.118624627969949
8.097891391650197	-0.1719270078069131	1.124093923609089
8.103816620133456	-0.1607255573793452	1.128461111931111
8.112936095796993	-0.1494932083156559	1.131592233549414
8.119999999999999	-0.1382335315172871	1.133477823393229
8.127080217790617	-0.1269499638662882	1.134171209439932
8.136809634413357	-0.1156457936296506	1.133752816214868
8.140443806889353	-0.1043239573604389	1.133422703779355
8.149669924284602	-0.09298437576689864	1.13636316421355
8.158928183443686	-0.08162741350715143	1.139566175648914
8.166026499097544	-0.07025573925575639	1.141874996866194
8.175781636634634	-0.05887266999447919	1.143071968711421
8.18	-0.04748158446850377	1.143206472435264
8.186919361291782	-0.0360857366212653	1.142397255544471
8.196330129511624	-0.02468820237535238	1.140773238160872
8.205122971251335	-0.01329187362679911	1.138456396237521
8.214935239569318	-0.001899468780162252	1.135557152785096
8.220000000000001	0.009486505864491271	1.132656821477358
8.22484074634318	0.02086497271240264	1.132194424406321
8.234619421576825	0.03223498197805022	1.132484480101999
8.244108761528631	0.04359435128269019	1.13256039560325
8.253830430308778	0.05494049978424322	1.132134468377177
8.26	0.06627078294421324	1.131156416887154
8.264325374239656	0.07758259852483715	1.129657153305509
8.274283934590706	0.08887341345394653	1.127692253958566
8.283387742470378	0.1001407630616744	1.125321215967884
8.293383586013668	0.1113822407205522	1.122599799671701
8.300000000000001	0.1225954830346652	1.119577134573764
8.304362174218635	0.1337781562337015	1.116295152391373
8.314464035817608	0.1449279458781585	1.11278853938545
8.323860546713604	0.1560425489846976	1.109084369821599
8.334198502654857	0.16711966330915	1.105202003369669
8.34	0.1781569855487048	1.101151840139061
8.345033811759045	0.1891521992033953	1.096935089966623
8.355321263602068	0.2001029798630478	1.092541618721847
8.365662655843892	0.2110069942229803	1.087948268509469
8.376061611971039	0.2218619133953528	1.083115743279052
8.380000000000001	0.2326654363509064	1.077984540742116
8.387481955139448	0.2434153308691006	1.072469743345676
8.398503874292773	0.2541095000351926	1.06645595635723
8.407637971187487	0.264745868466875	1.059799119672882
8.418303047044905	0.2753233549399982	1.052354117419811
8.420975943305359	0.2858405848862865	1.04421691954414
8.432444948999489	0.2962960063317305	1.037090341871637
8.44	0.306683299557615	1.035298873908158
8.450776673666876	0.3169957283666135	1.033337177264547
8.460000000000001	0.327231166670713	1.028806545808133
8.467916459223659	0.3373906630429508	1.019654815359149
8.48	0.3474764050995801	1.008067384994063
8.48406559211652	0.3574922395007606	0.9934349358139645
8.495365140875032	0.3674417601204162	0.9810296163080551
8.505274713314414	0.37730510008487	0.9779999410927993
8.518226535806393	0.3870724754122202	0.9734333294948597
8.52	0.3967464641992457	0.9660748780068802
8.531463660765048	0.4063367440438836	0.9540824963206296
8.541746599812928	0.4158459793832736	0.9484478530049719
8.553693918412289	0.4252441225400881	0.9403381065042827
8.56	0.4345412114792453	0.9269841103804165
8.573165229608882	0.4437639545476965	0.9059964541021596
8.58	0.4529017389500352	0.9044605840862358
8.590514142336467	0.4618977610303481	0.9037619072343942
8.602985644667097	0.4707826344718437	0.8861555923949147
8.615942572960691	0.4796049054959121	0.8729242910038932
8.619999999999999	0.4882863623073036	0.8644443253563221
8.634890218012369	0.4968710044199167	0.8435301663588147
8.642309363348527	0.5053541868545103	0.8494016137157774
8.655873742332174	0.513660636263533	0.8329484143467577
8.669491248906638	0.5219299598724827	0.8090591776673351
8.68	0.530042862960679	0.8092650466263915
8.688083478490528	0.538023205631422	0.7906270356956437
8.699999999999999	0.5458940370034622	0.7841072316807631
8.713140240452006	0.5536255259762165	0.7567397422302801
8.728340932743293	0.5612754945459034	0.7645440613969828
8.74	0.5686997787584416	0.7357050898608481
8.751378291962519	0.5761067683299836	0.7291433914189885
8.760268418523198	0.5833003091980228	0.7104390688203869
8.777050157571114	0.5903804755618373	0.7068641337828437
8.794385639823851	0.5973517796057096	0.6735891167118788
8.803919838328399	0.6041097963342202	0.6881581268182236
8.82	0.610821756012936	0.6536967469727316
8.836143331561752	0.6172859652751312	0.6441731460680605
